TITLE ""
FILE "Disc2Track31.mp3" MP3
  TRACK 01 AUDIO
    TITLE "Disc2Track31_01"
    INDEX 01 00:00:00
  TRACK 02 AUDIO
    TITLE "Disc2Track31_02"
    INDEX 01 00:01:06
  TRACK 03 AUDIO
    TITLE "Disc2Track31_03"
    INDEX 01 00:03:22
  TRACK 04 AUDIO
    TITLE "Disc2Track31_04"
    INDEX 01 00:04:39
  TRACK 05 AUDIO
    TITLE "Disc2Track31_05"
    INDEX 01 00:08:33
  TRACK 06 AUDIO
    TITLE "Disc2Track31_06"
    INDEX 01 00:08:67
  TRACK 07 AUDIO
    TITLE "Disc2Track31_07"
    INDEX 01 00:10:26
  TRACK 08 AUDIO
    TITLE "Disc2Track31_08"
    INDEX 01 00:12:17
  TRACK 09 AUDIO
    TITLE "Disc2Track31_09"
    INDEX 01 00:13:52
  TRACK 10 AUDIO
    TITLE "Disc2Track31_10"
    INDEX 01 00:16:39
  TRACK 11 AUDIO
    TITLE "Disc2Track31_11"
    INDEX 01 00:16:70
  TRACK 12 AUDIO
    TITLE "Disc2Track31_12"
    INDEX 01 00:18:30
  TRACK 13 AUDIO
    TITLE "Disc2Track31_13"
    INDEX 01 00:19:23
  TRACK 14 AUDIO
    TITLE "Disc2Track31_14"
    INDEX 01 00:20:58
  TRACK 15 AUDIO
    TITLE "Disc2Track31_15"
    INDEX 01 00:21:14
  TRACK 16 AUDIO
    TITLE "Disc2Track31_16"
    INDEX 01 00:22:43
  TRACK 17 AUDIO
    TITLE "Disc2Track31_17"
    INDEX 01 00:24:72
  TRACK 18 AUDIO
    TITLE "Disc2Track31_18"
    INDEX 01 00:26:27
  TRACK 19 AUDIO
    TITLE "Disc2Track31_19"
    INDEX 01 00:26:63
  TRACK 20 AUDIO
    TITLE "Disc2Track31_20"
    INDEX 01 00:28:30
  TRACK 21 AUDIO
    TITLE "Disc2Track31_21"
    INDEX 01 00:30:27
  TRACK 22 AUDIO
    TITLE "Disc2Track31_22"
    INDEX 01 00:31:68
  TRACK 23 AUDIO
    TITLE "Disc2Track31_23"
    INDEX 01 00:36:32
  TRACK 24 AUDIO
    TITLE "Disc2Track31_24"
    INDEX 01 00:36:65
  TRACK 25 AUDIO
    TITLE "Disc2Track31_25"
    INDEX 01 00:38:21
  TRACK 26 AUDIO
    TITLE "Disc2Track31_26"
    INDEX 01 00:40:51
  TRACK 27 AUDIO
    TITLE "Disc2Track31_27"
    INDEX 01 00:42:05
  TRACK 28 AUDIO
    TITLE "Disc2Track31_28"
    INDEX 01 00:44:33
  TRACK 29 AUDIO
    TITLE "Disc2Track31_29"
    INDEX 01 00:44:64
  TRACK 30 AUDIO
    TITLE "Disc2Track31_30"
    INDEX 01 00:46:40
  TRACK 31 AUDIO
    TITLE "Disc2Track31_31"
    INDEX 01 00:48:11
  TRACK 32 AUDIO
    TITLE "Disc2Track31_32"
    INDEX 01 00:49:64
  TRACK 33 AUDIO
    TITLE "Disc2Track31_33"
    INDEX 01 00:50:22
  TRACK 34 AUDIO
    TITLE "Disc2Track31_34"
    INDEX 01 00:51:64
  TRACK 35 AUDIO
    TITLE "Disc2Track31_35"
    INDEX 01 00:52:60
  TRACK 36 AUDIO
    TITLE "Disc2Track31_36"
    INDEX 01 00:54:26
  TRACK 37 AUDIO
    TITLE "Disc2Track31_37"
    INDEX 01 00:59:31
  TRACK 38 AUDIO
    TITLE "Disc2Track31_38"
    INDEX 01 00:59:62
  TRACK 39 AUDIO
    TITLE "Disc2Track31_39"
    INDEX 01 01:01:10
  TRACK 40 AUDIO
    TITLE "Disc2Track31_40"
    INDEX 01 01:03:11
  TRACK 41 AUDIO
    TITLE "Disc2Track31_41"
    INDEX 01 01:04:32
  TRACK 42 AUDIO
    TITLE "Disc2Track31_42"
    INDEX 01 01:08:22
  TRACK 43 AUDIO
    TITLE "Disc2Track31_43"
    INDEX 01 01:08:55
  TRACK 44 AUDIO
    TITLE "Disc2Track31_44"
    INDEX 01 01:10:09
  TRACK 45 AUDIO
    TITLE "Disc2Track31_45"
    INDEX 01 01:11:08
  TRACK 46 AUDIO
    TITLE "Disc2Track31_46"
    INDEX 01 01:12:35
  TRACK 47 AUDIO
    TITLE "Disc2Track31_47"
    INDEX 01 01:17:27
  TRACK 48 AUDIO
    TITLE "Disc2Track31_48"
    INDEX 01 01:17:58
  TRACK 49 AUDIO
    TITLE "Disc2Track31_49"
    INDEX 01 01:19:22
  TRACK 50 AUDIO
    TITLE "Disc2Track31_50"
    INDEX 01 01:21:60
  TRACK 51 AUDIO
    TITLE "Disc2Track31_51"
    INDEX 01 01:23:21
  TRACK 52 AUDIO
    TITLE "Disc2Track31_52"
    INDEX 01 01:26:20
  TRACK 53 AUDIO
    TITLE "Disc2Track31_53"
    INDEX 01 01:26:53
  TRACK 54 AUDIO
    TITLE "Disc2Track31_54"
    INDEX 01 01:28:05
  TRACK 55 AUDIO
    TITLE "Disc2Track31_55"
    INDEX 01 01:32:32
  TRACK 56 AUDIO
    TITLE "Disc2Track31_56"
    INDEX 01 01:33:57
  TRACK 57 AUDIO
    TITLE "Disc2Track31_57"
    INDEX 01 01:37:74
  TRACK 58 AUDIO
    TITLE "Disc2Track31_58"
    INDEX 01 01:38:31
  TRACK 59 AUDIO
    TITLE "Disc2Track31_59"
    INDEX 01 01:39:67
  TRACK 60 AUDIO
    TITLE "Disc2Track31_60"
    INDEX 01 01:41:57
  TRACK 61 AUDIO
    TITLE "Disc2Track31_61"
    INDEX 01 01:43:22
  TRACK 62 AUDIO
    TITLE "Disc2Track31_62"
    INDEX 01 01:43:61
  TRACK 63 AUDIO
    TITLE "Disc2Track31_63"
    INDEX 01 01:45:13
  TRACK 64 AUDIO
    TITLE "Disc2Track31_64"
    INDEX 01 01:47:18
  TRACK 65 AUDIO
    TITLE "Disc2Track31_65"
    INDEX 01 01:48:45
  TRACK 66 AUDIO
    TITLE "Disc2Track31_66"
    INDEX 01 01:50:28
  TRACK 67 AUDIO
    TITLE "Disc2Track31_67"
    INDEX 01 01:50:59
  TRACK 68 AUDIO
    TITLE "Disc2Track31_68"
    INDEX 01 01:52:19
  TRACK 69 AUDIO
    TITLE "Disc2Track31_69"
    INDEX 01 01:54:30
  TRACK 70 AUDIO
    TITLE "Disc2Track31_70"
    INDEX 01 01:55:64
  TRACK 71 AUDIO
    TITLE "Disc2Track31_71"
    INDEX 01 01:58:00
